<mxfile host="app.diagrams.net" modified="2024-04-04T12:50:24.433Z" agent="Mozilla/5.0 (Macintosh; Intel Mac OS X 10_15_7) AppleWebKit/537.36 (KHTML, like Gecko) Chrome/123.0.0.0 Safari/537.36" etag="ktNbuM2pHgLz-V7JJyxM" version="24.2.2" type="google">
  <diagram name="PÃ¡gina-1" id="Z_-dVmRHrqysoaLNT-mr">
    <mxGraphModel grid="1" page="1" gridSize="10" guides="1" tooltips="1" connect="1" arrows="1" fold="1" pageScale="1" pageWidth="827" pageHeight="1169" math="0" shadow="0">
      <root>
        <mxCell id="0" />
        <mxCell id="1" parent="0" />
        <mxCell id="IF6HLjn18SVDWIELLXdh-28" style="edgeStyle=orthogonalEdgeStyle;rounded=0;orthogonalLoop=1;jettySize=auto;html=1;exitX=0.5;exitY=1;exitDx=0;exitDy=0;entryX=0.5;entryY=0;entryDx=0;entryDy=0;" edge="1" parent="1" source="IF6HLjn18SVDWIELLXdh-1" target="IF6HLjn18SVDWIELLXdh-2">
          <mxGeometry relative="1" as="geometry" />
        </mxCell>
        <mxCell id="IF6HLjn18SVDWIELLXdh-49" style="edgeStyle=orthogonalEdgeStyle;rounded=0;orthogonalLoop=1;jettySize=auto;html=1;exitX=0.5;exitY=1;exitDx=0;exitDy=0;entryX=0.5;entryY=0;entryDx=0;entryDy=0;" edge="1" parent="1" source="IF6HLjn18SVDWIELLXdh-1" target="IF6HLjn18SVDWIELLXdh-4">
          <mxGeometry relative="1" as="geometry" />
        </mxCell>
        <mxCell id="IF6HLjn18SVDWIELLXdh-50" style="edgeStyle=orthogonalEdgeStyle;rounded=0;orthogonalLoop=1;jettySize=auto;html=1;exitX=0.5;exitY=1;exitDx=0;exitDy=0;entryX=0.5;entryY=0;entryDx=0;entryDy=0;" edge="1" parent="1" source="IF6HLjn18SVDWIELLXdh-1" target="IF6HLjn18SVDWIELLXdh-3">
          <mxGeometry relative="1" as="geometry" />
        </mxCell>
        <mxCell id="IF6HLjn18SVDWIELLXdh-1" value="Formula One Regulation" style="rounded=0;whiteSpace=wrap;html=1;" vertex="1" parent="1">
          <mxGeometry x="980" y="180" width="120" height="60" as="geometry" />
        </mxCell>
        <mxCell id="IF6HLjn18SVDWIELLXdh-13" style="edgeStyle=orthogonalEdgeStyle;rounded=0;orthogonalLoop=1;jettySize=auto;html=1;exitX=0.5;exitY=1;exitDx=0;exitDy=0;entryX=0.5;entryY=0;entryDx=0;entryDy=0;" edge="1" parent="1" source="IF6HLjn18SVDWIELLXdh-2" target="IF6HLjn18SVDWIELLXdh-6">
          <mxGeometry relative="1" as="geometry" />
        </mxCell>
        <mxCell id="IF6HLjn18SVDWIELLXdh-19" style="edgeStyle=orthogonalEdgeStyle;rounded=0;orthogonalLoop=1;jettySize=auto;html=1;exitX=0.5;exitY=1;exitDx=0;exitDy=0;entryX=0.5;entryY=0;entryDx=0;entryDy=0;" edge="1" parent="1" source="IF6HLjn18SVDWIELLXdh-2" target="IF6HLjn18SVDWIELLXdh-5">
          <mxGeometry relative="1" as="geometry" />
        </mxCell>
        <mxCell id="IF6HLjn18SVDWIELLXdh-2" value="Technical" style="rounded=0;whiteSpace=wrap;html=1;" vertex="1" parent="1">
          <mxGeometry x="100" y="340" width="120" height="60" as="geometry" />
        </mxCell>
        <mxCell id="IF6HLjn18SVDWIELLXdh-47" style="edgeStyle=orthogonalEdgeStyle;rounded=0;orthogonalLoop=1;jettySize=auto;html=1;exitX=0.5;exitY=1;exitDx=0;exitDy=0;entryX=0.5;entryY=0;entryDx=0;entryDy=0;" edge="1" parent="1" source="IF6HLjn18SVDWIELLXdh-3" target="IF6HLjn18SVDWIELLXdh-38">
          <mxGeometry relative="1" as="geometry" />
        </mxCell>
        <mxCell id="IF6HLjn18SVDWIELLXdh-48" style="edgeStyle=orthogonalEdgeStyle;rounded=0;orthogonalLoop=1;jettySize=auto;html=1;exitX=0.5;exitY=1;exitDx=0;exitDy=0;entryX=0.5;entryY=0;entryDx=0;entryDy=0;" edge="1" parent="1" source="IF6HLjn18SVDWIELLXdh-3" target="IF6HLjn18SVDWIELLXdh-37">
          <mxGeometry relative="1" as="geometry" />
        </mxCell>
        <mxCell id="IF6HLjn18SVDWIELLXdh-3" value="Financial" style="rounded=0;whiteSpace=wrap;html=1;" vertex="1" parent="1">
          <mxGeometry x="1860" y="340" width="120" height="60" as="geometry" />
        </mxCell>
        <mxCell id="IF6HLjn18SVDWIELLXdh-32" style="edgeStyle=orthogonalEdgeStyle;rounded=0;orthogonalLoop=1;jettySize=auto;html=1;exitX=0.5;exitY=1;exitDx=0;exitDy=0;entryX=0.5;entryY=0;entryDx=0;entryDy=0;" edge="1" parent="1" source="IF6HLjn18SVDWIELLXdh-4" target="IF6HLjn18SVDWIELLXdh-21">
          <mxGeometry relative="1" as="geometry" />
        </mxCell>
        <mxCell id="IF6HLjn18SVDWIELLXdh-33" style="edgeStyle=orthogonalEdgeStyle;rounded=0;orthogonalLoop=1;jettySize=auto;html=1;exitX=0.5;exitY=1;exitDx=0;exitDy=0;entryX=0.5;entryY=0;entryDx=0;entryDy=0;" edge="1" parent="1" source="IF6HLjn18SVDWIELLXdh-4" target="IF6HLjn18SVDWIELLXdh-20">
          <mxGeometry relative="1" as="geometry" />
        </mxCell>
        <mxCell id="IF6HLjn18SVDWIELLXdh-4" value="Sport" style="rounded=0;whiteSpace=wrap;html=1;" vertex="1" parent="1">
          <mxGeometry x="980" y="340" width="120" height="60" as="geometry" />
        </mxCell>
        <mxCell id="IF6HLjn18SVDWIELLXdh-16" style="edgeStyle=orthogonalEdgeStyle;rounded=0;orthogonalLoop=1;jettySize=auto;html=1;exitX=0.5;exitY=1;exitDx=0;exitDy=0;entryX=0.5;entryY=0;entryDx=0;entryDy=0;" edge="1" parent="1" source="IF6HLjn18SVDWIELLXdh-5" target="IF6HLjn18SVDWIELLXdh-11">
          <mxGeometry relative="1" as="geometry" />
        </mxCell>
        <mxCell id="IF6HLjn18SVDWIELLXdh-18" style="edgeStyle=orthogonalEdgeStyle;rounded=0;orthogonalLoop=1;jettySize=auto;html=1;exitX=0.5;exitY=1;exitDx=0;exitDy=0;entryX=0.5;entryY=0;entryDx=0;entryDy=0;" edge="1" parent="1" source="IF6HLjn18SVDWIELLXdh-5" target="IF6HLjn18SVDWIELLXdh-10">
          <mxGeometry relative="1" as="geometry" />
        </mxCell>
        <mxCell id="IF6HLjn18SVDWIELLXdh-5" value="Motor &amp;amp; Power Unit" style="rounded=0;whiteSpace=wrap;html=1;" vertex="1" parent="1">
          <mxGeometry x="280" y="480" width="120" height="60" as="geometry" />
        </mxCell>
        <mxCell id="IF6HLjn18SVDWIELLXdh-14" style="edgeStyle=orthogonalEdgeStyle;rounded=0;orthogonalLoop=1;jettySize=auto;html=1;exitX=0.5;exitY=1;exitDx=0;exitDy=0;entryX=0.5;entryY=0;entryDx=0;entryDy=0;" edge="1" parent="1" source="IF6HLjn18SVDWIELLXdh-6" target="IF6HLjn18SVDWIELLXdh-9">
          <mxGeometry relative="1" as="geometry" />
        </mxCell>
        <mxCell id="IF6HLjn18SVDWIELLXdh-17" style="edgeStyle=orthogonalEdgeStyle;rounded=0;orthogonalLoop=1;jettySize=auto;html=1;exitX=0.5;exitY=1;exitDx=0;exitDy=0;entryX=0.5;entryY=0;entryDx=0;entryDy=0;" edge="1" parent="1" source="IF6HLjn18SVDWIELLXdh-6" target="IF6HLjn18SVDWIELLXdh-8">
          <mxGeometry relative="1" as="geometry" />
        </mxCell>
        <mxCell id="IF6HLjn18SVDWIELLXdh-6" value="Car Design" style="rounded=0;whiteSpace=wrap;html=1;" vertex="1" parent="1">
          <mxGeometry x="-80" y="480" width="120" height="60" as="geometry" />
        </mxCell>
        <mxCell id="IF6HLjn18SVDWIELLXdh-8" value="Weight" style="rounded=0;whiteSpace=wrap;html=1;" vertex="1" parent="1">
          <mxGeometry y="620" width="120" height="60" as="geometry" />
        </mxCell>
        <mxCell id="IF6HLjn18SVDWIELLXdh-9" value="Dimensions" style="rounded=0;whiteSpace=wrap;html=1;" vertex="1" parent="1">
          <mxGeometry x="-160" y="620" width="120" height="60" as="geometry" />
        </mxCell>
        <mxCell id="IF6HLjn18SVDWIELLXdh-10" value="Fuel limit" style="rounded=0;whiteSpace=wrap;html=1;" vertex="1" parent="1">
          <mxGeometry x="360" y="620" width="120" height="60" as="geometry" />
        </mxCell>
        <mxCell id="IF6HLjn18SVDWIELLXdh-11" value="Motor Specification" style="rounded=0;whiteSpace=wrap;html=1;" vertex="1" parent="1">
          <mxGeometry x="200" y="620" width="120" height="60" as="geometry" />
        </mxCell>
        <mxCell id="IF6HLjn18SVDWIELLXdh-34" style="edgeStyle=orthogonalEdgeStyle;rounded=0;orthogonalLoop=1;jettySize=auto;html=1;exitX=0.5;exitY=1;exitDx=0;exitDy=0;entryX=0.5;entryY=0;entryDx=0;entryDy=0;" edge="1" parent="1" source="IF6HLjn18SVDWIELLXdh-20" target="IF6HLjn18SVDWIELLXdh-27">
          <mxGeometry relative="1" as="geometry" />
        </mxCell>
        <mxCell id="IF6HLjn18SVDWIELLXdh-35" style="edgeStyle=orthogonalEdgeStyle;rounded=0;orthogonalLoop=1;jettySize=auto;html=1;exitX=0.5;exitY=1;exitDx=0;exitDy=0;entryX=0.5;entryY=0;entryDx=0;entryDy=0;" edge="1" parent="1" source="IF6HLjn18SVDWIELLXdh-20" target="IF6HLjn18SVDWIELLXdh-26">
          <mxGeometry relative="1" as="geometry" />
        </mxCell>
        <mxCell id="IF6HLjn18SVDWIELLXdh-36" style="edgeStyle=orthogonalEdgeStyle;rounded=0;orthogonalLoop=1;jettySize=auto;html=1;exitX=0.5;exitY=1;exitDx=0;exitDy=0;entryX=0.5;entryY=0;entryDx=0;entryDy=0;" edge="1" parent="1" source="IF6HLjn18SVDWIELLXdh-20" target="IF6HLjn18SVDWIELLXdh-25">
          <mxGeometry relative="1" as="geometry" />
        </mxCell>
        <mxCell id="IF6HLjn18SVDWIELLXdh-20" value="Sanction &amp;amp; penalty" style="rounded=0;whiteSpace=wrap;html=1;" vertex="1" parent="1">
          <mxGeometry x="1240" y="480" width="120" height="60" as="geometry" />
        </mxCell>
        <mxCell id="IF6HLjn18SVDWIELLXdh-29" style="edgeStyle=orthogonalEdgeStyle;rounded=0;orthogonalLoop=1;jettySize=auto;html=1;exitX=0.5;exitY=1;exitDx=0;exitDy=0;entryX=0.5;entryY=0;entryDx=0;entryDy=0;" edge="1" parent="1" source="IF6HLjn18SVDWIELLXdh-21" target="IF6HLjn18SVDWIELLXdh-24">
          <mxGeometry relative="1" as="geometry" />
        </mxCell>
        <mxCell id="IF6HLjn18SVDWIELLXdh-30" style="edgeStyle=orthogonalEdgeStyle;rounded=0;orthogonalLoop=1;jettySize=auto;html=1;exitX=0.5;exitY=1;exitDx=0;exitDy=0;entryX=0.5;entryY=0;entryDx=0;entryDy=0;" edge="1" parent="1" source="IF6HLjn18SVDWIELLXdh-21" target="IF6HLjn18SVDWIELLXdh-22">
          <mxGeometry relative="1" as="geometry" />
        </mxCell>
        <mxCell id="IF6HLjn18SVDWIELLXdh-31" style="edgeStyle=orthogonalEdgeStyle;rounded=0;orthogonalLoop=1;jettySize=auto;html=1;exitX=0.5;exitY=1;exitDx=0;exitDy=0;entryX=0.5;entryY=0;entryDx=0;entryDy=0;" edge="1" parent="1" source="IF6HLjn18SVDWIELLXdh-21" target="IF6HLjn18SVDWIELLXdh-23">
          <mxGeometry relative="1" as="geometry" />
        </mxCell>
        <mxCell id="IF6HLjn18SVDWIELLXdh-21" value="Calification &amp;amp; Race" style="rounded=0;whiteSpace=wrap;html=1;" vertex="1" parent="1">
          <mxGeometry x="720" y="480" width="120" height="60" as="geometry" />
        </mxCell>
        <mxCell id="IF6HLjn18SVDWIELLXdh-22" value="Flag" style="rounded=0;whiteSpace=wrap;html=1;" vertex="1" parent="1">
          <mxGeometry x="880" y="620" width="120" height="60" as="geometry" />
        </mxCell>
        <mxCell id="IF6HLjn18SVDWIELLXdh-23" value="Race start procedure" style="rounded=0;whiteSpace=wrap;html=1;" vertex="1" parent="1">
          <mxGeometry x="720" y="620" width="120" height="60" as="geometry" />
        </mxCell>
        <mxCell id="IF6HLjn18SVDWIELLXdh-24" value="Calification format" style="rounded=0;whiteSpace=wrap;html=1;" vertex="1" parent="1">
          <mxGeometry x="560" y="620" width="120" height="60" as="geometry" />
        </mxCell>
        <mxCell id="IF6HLjn18SVDWIELLXdh-25" value="Suspension" style="rounded=0;whiteSpace=wrap;html=1;" vertex="1" parent="1">
          <mxGeometry x="1400" y="620" width="120" height="60" as="geometry" />
        </mxCell>
        <mxCell id="IF6HLjn18SVDWIELLXdh-26" value="Points deduction" style="rounded=0;whiteSpace=wrap;html=1;" vertex="1" parent="1">
          <mxGeometry x="1240" y="620" width="120" height="60" as="geometry" />
        </mxCell>
        <mxCell id="IF6HLjn18SVDWIELLXdh-27" value="Time penalization" style="rounded=0;whiteSpace=wrap;html=1;" vertex="1" parent="1">
          <mxGeometry x="1080" y="620" width="120" height="60" as="geometry" />
        </mxCell>
        <mxCell id="IF6HLjn18SVDWIELLXdh-44" style="edgeStyle=orthogonalEdgeStyle;rounded=0;orthogonalLoop=1;jettySize=auto;html=1;exitX=0.5;exitY=1;exitDx=0;exitDy=0;entryX=0.5;entryY=0;entryDx=0;entryDy=0;" edge="1" parent="1" source="IF6HLjn18SVDWIELLXdh-37" target="IF6HLjn18SVDWIELLXdh-42">
          <mxGeometry relative="1" as="geometry" />
        </mxCell>
        <mxCell id="IF6HLjn18SVDWIELLXdh-46" style="edgeStyle=orthogonalEdgeStyle;rounded=0;orthogonalLoop=1;jettySize=auto;html=1;exitX=0.5;exitY=1;exitDx=0;exitDy=0;entryX=0.5;entryY=0;entryDx=0;entryDy=0;" edge="1" parent="1" source="IF6HLjn18SVDWIELLXdh-37" target="IF6HLjn18SVDWIELLXdh-41">
          <mxGeometry relative="1" as="geometry" />
        </mxCell>
        <mxCell id="IF6HLjn18SVDWIELLXdh-37" value="Incomes Distribution" style="rounded=0;whiteSpace=wrap;html=1;" vertex="1" parent="1">
          <mxGeometry x="2040" y="480" width="120" height="60" as="geometry" />
        </mxCell>
        <mxCell id="IF6HLjn18SVDWIELLXdh-43" style="edgeStyle=orthogonalEdgeStyle;rounded=0;orthogonalLoop=1;jettySize=auto;html=1;exitX=0.5;exitY=1;exitDx=0;exitDy=0;entryX=0.5;entryY=0;entryDx=0;entryDy=0;" edge="1" parent="1" source="IF6HLjn18SVDWIELLXdh-38" target="IF6HLjn18SVDWIELLXdh-39">
          <mxGeometry relative="1" as="geometry" />
        </mxCell>
        <mxCell id="IF6HLjn18SVDWIELLXdh-45" style="edgeStyle=orthogonalEdgeStyle;rounded=0;orthogonalLoop=1;jettySize=auto;html=1;exitX=0.5;exitY=1;exitDx=0;exitDy=0;entryX=0.5;entryY=0;entryDx=0;entryDy=0;" edge="1" parent="1" source="IF6HLjn18SVDWIELLXdh-38" target="IF6HLjn18SVDWIELLXdh-40">
          <mxGeometry relative="1" as="geometry" />
        </mxCell>
        <mxCell id="IF6HLjn18SVDWIELLXdh-38" value="Budget Cap" style="rounded=0;whiteSpace=wrap;html=1;" vertex="1" parent="1">
          <mxGeometry x="1680" y="480" width="120" height="60" as="geometry" />
        </mxCell>
        <mxCell id="IF6HLjn18SVDWIELLXdh-39" value="Expenses limit" style="rounded=0;whiteSpace=wrap;html=1;" vertex="1" parent="1">
          <mxGeometry x="1600" y="620" width="120" height="60" as="geometry" />
        </mxCell>
        <mxCell id="IF6HLjn18SVDWIELLXdh-40" value="Penalties for exceeding the budget" style="rounded=0;whiteSpace=wrap;html=1;" vertex="1" parent="1">
          <mxGeometry x="1760" y="620" width="120" height="60" as="geometry" />
        </mxCell>
        <mxCell id="IF6HLjn18SVDWIELLXdh-41" value="Sponsorship contract" style="rounded=0;whiteSpace=wrap;html=1;" vertex="1" parent="1">
          <mxGeometry x="2120" y="620" width="120" height="60" as="geometry" />
        </mxCell>
        <mxCell id="IF6HLjn18SVDWIELLXdh-42" value="Monetary award" style="rounded=0;whiteSpace=wrap;html=1;" vertex="1" parent="1">
          <mxGeometry x="1960" y="620" width="120" height="60" as="geometry" />
        </mxCell>
      </root>
    </mxGraphModel>
  </diagram>
</mxfile>
